# Blender 3.1.0
# www.blender.org
mtllib barell.mtl
o Circle
v 0.005308 0.001349 -0.667169
v -0.187277 0.001349 -0.635392
v -0.319426 0.595463 -0.488551
v -0.365060 0.001349 -0.554819
v -0.507535 0.001349 -0.421402
v -0.162938 0.595463 -0.559473
v -0.610592 0.001349 -0.255637
v -0.654933 0.001349 -0.065551
v 0.006580 0.595463 -0.587444
v -0.629560 0.001349 0.192062
v -0.217977 0.595463 0.541481
v -0.548988 0.001349 0.369846
v -0.415571 0.001349 0.512320
v -0.249806 0.001349 0.615378
v -0.059720 0.001349 0.659719
v -0.363887 0.595463 0.450767
v 0.135365 0.001349 0.653314
v 0.318050 0.001349 0.584576
v -0.481323 0.595463 0.325358
v 0.476699 0.001349 0.470867
v 0.590407 0.001349 0.312219
v -0.552245 0.595463 0.168870
v 0.659145 0.001349 0.129533
v 0.665550 0.001349 -0.065551
v -0.574579 0.595463 -0.057887
v 0.621209 0.001349 -0.255637
v 0.518152 0.001349 -0.421402
v -0.535549 0.595463 -0.225205
v 0.375677 0.001349 -0.554819
v 0.197894 0.001349 -0.635392
v -0.444835 0.595463 -0.371115
v -0.050659 0.595463 0.580511
v 0.121058 0.595463 0.574873
v 0.281862 0.595463 0.514368
v 0.421508 0.595463 0.414280
v 0.521596 0.595463 0.274634
v 0.582101 0.595463 0.113830
v 0.587739 0.595463 -0.057887
v 0.548709 0.595463 -0.225205
v 0.457996 0.595463 -0.371115
v 0.332587 0.595463 -0.488551
v 0.176098 0.595463 -0.559473
v 0.006580 -0.587019 -0.587444
v -0.162938 -0.587019 -0.559473
v -0.319426 -0.587019 -0.488551
v -0.444835 -0.587019 -0.371115
v -0.535549 -0.587019 -0.225205
v -0.574579 -0.587019 -0.057887
v -0.552245 -0.587019 0.168870
v -0.481323 -0.587019 0.325358
v -0.363887 -0.587019 0.450767
v -0.217977 -0.587019 0.541481
v -0.050659 -0.587019 0.580511
v 0.121058 -0.587019 0.574873
v 0.281862 -0.587019 0.514368
v 0.421508 -0.587019 0.414280
v 0.521596 -0.587019 0.274634
v 0.582101 -0.587019 0.113830
v 0.587739 -0.587019 -0.057887
v 0.548709 -0.587019 -0.225205
v 0.457996 -0.587019 -0.371115
v 0.332587 -0.587019 -0.488551
v 0.176098 -0.587019 -0.559473
vn 0.9655 -0.1306 -0.2252
vn -0.0000 1.0000 -0.0000
vn 0.9657 0.1294 -0.2253
vn -0.9651 0.1334 -0.2251
vn 0.9911 0.1294 0.0325
vn 0.5776 0.1304 0.8059
vn -0.4092 0.1321 -0.9028
vn -0.1614 0.1316 -0.9781
vn 0.3491 0.1309 0.9279
vn -0.5233 0.1327 0.8417
vn 0.6777 0.1299 -0.7237
vn -0.9027 0.1334 0.4091
vn 0.8421 0.1296 -0.5235
vn -0.8417 0.1331 -0.5233
vn 0.9280 0.1296 0.3492
vn 0.0325 0.1316 0.9908
vn -0.6775 0.1327 -0.7235
vn 0.8059 0.1299 0.5776
vn -0.7234 0.1331 0.6774
vn 0.1614 0.1309 -0.9782
vn -0.2252 0.1321 0.9653
vn 0.4093 0.1304 -0.9030
vn -0.9865 0.1322 0.0972
vn -0.0000 -1.0000 -0.0000
vn -0.9650 -0.1347 -0.2251
vn 0.9909 -0.1306 0.0325
vn 0.5775 -0.1317 0.8057
vn -0.4091 -0.1334 -0.9027
vn -0.1614 -0.1329 -0.9779
vn 0.3491 -0.1322 0.9277
vn -0.5232 -0.1340 0.8416
vn 0.6776 -0.1311 -0.7236
vn -0.9025 -0.1347 0.4090
vn 0.8420 -0.1308 -0.5235
vn -0.8415 -0.1344 -0.5232
vn 0.9279 -0.1308 0.3491
vn 0.0325 -0.1329 0.9906
vn -0.6774 -0.1340 -0.7233
vn 0.8058 -0.1311 0.5775
vn -0.7233 -0.1344 0.6773
vn 0.1614 -0.1322 -0.9780
vn -0.2251 -0.1334 0.9652
vn 0.4092 -0.1317 -0.9029
vn -0.9863 -0.1334 0.0971
vt 0.486149 0.513068
vt 0.534140 0.513068
vt 0.479739 0.169203
vt 0.579916 1.000047
vt 0.581888 0.513068
vt 0.629465 0.513068
vt 0.405899 0.133892
vt 0.532167 1.000047
vt 0.676873 0.513068
vt 0.724192 0.513068
vt 0.328085 0.126719
vt 0.484177 1.000047
vt 0.787222 0.513068
vt 0.479739 0.830797
vt 0.927553 1.000047
vt 0.834540 0.513068
vt 0.881948 0.513068
vt 0.929525 0.513068
vt 0.977274 0.513068
vt 0.541610 0.763950
vt 0.879976 1.000047
vt 1.001782 0.508658
vt 0.000669 0.513068
vt 0.048860 0.513068
vt 0.589076 0.676815
vt 0.832568 1.000047
vt 0.097287 0.513068
vt 0.145877 0.513068
vt 0.614149 0.572823
vt 0.785249 1.000047
vt 0.194612 0.513068
vt 0.243409 0.513068
vt 0.614149 0.427176
vt 0.722220 1.000047
vt 0.292206 0.513068
vt 0.340941 0.513068
vt 0.589076 0.323185
vt 0.674901 1.000047
vt 0.389530 0.513068
vt 0.437958 0.513068
vt 0.541610 0.236050
vt 0.627493 1.000047
vt 0.405899 0.866108
vt 0.975301 1.000047
vt 0.328085 0.873281
vt -0.001304 1.000047
vt 0.999810 1.000012
vt 0.252759 0.844867
vt 0.046888 1.000047
vt 0.185230 0.789946
vt 0.095315 1.000047
vt 0.133808 0.707384
vt 0.143904 1.000047
vt 0.099324 0.608883
vt 0.192639 1.000047
vt 0.089138 0.500000
vt 0.241436 1.000047
vt 0.099324 0.391118
vt 0.290234 1.000047
vt 0.133808 0.292616
vt 0.338969 1.000047
vt 0.185230 0.210054
vt 0.387558 1.000047
vt 0.252759 0.155133
vt 0.435985 1.000047
vt 0.327642 0.880296
vt 0.488873 -0.000815
vt 0.406918 0.872989
vt 0.536864 -0.000815
vt 0.482146 0.837014
vt 0.584612 -0.000815
vt 0.545180 0.768910
vt 0.632189 -0.000815
vt 0.593538 0.680138
vt 0.679597 -0.000815
vt 0.619082 0.574193
vt 0.726916 -0.000815
vt 0.619082 0.425808
vt 0.789946 -0.000815
vt 0.593538 0.319863
vt 0.837264 -0.000815
vt 0.545180 0.231090
vt 0.884672 -0.000815
vt 0.482147 0.162986
vt 0.932249 -0.000815
vt 0.406919 0.127011
vt 0.979998 -0.000815
vt 0.327642 0.119704
vt 0.000681 -0.000467
vt 1.000984 -0.000263
vt 0.250901 0.148652
vt 0.051584 -0.000815
vt 0.182102 0.204604
vt 0.100012 -0.000815
vt 0.129714 0.288718
vt 0.148601 -0.000815
vt 0.094582 0.389071
vt 0.197336 -0.000815
vt 0.246133 -0.000815
vt 0.084205 0.499999
vt 0.094582 0.610928
vt 0.294930 -0.000815
vt 0.129714 0.711281
vt 0.343665 -0.000815
vt 0.182102 0.795395
vt 0.392254 -0.000815
vt 0.250900 0.851348
vt 0.440682 -0.000815
s 0
usemtl Material.001
f 24/32/1 60/102/1 26/35/1
f 3/3/2 32/43/2 40/60/2
f 24/32/3 39/59/3 38/57/3
f 8/10/4 28/38/4 7/9/4
f 24/32/5 37/55/5 23/31/5
f 18/24/6 35/51/6 34/49/6
f 2/2/7 3/4/7 6/8/7
f 2/2/8 9/12/8 1/1/8
f 18/24/9 33/46/9 17/23/9
f 13/17/10 11/15/10 16/21/10
f 27/36/11 41/63/11 40/61/11
f 10/13/12 19/26/12 22/30/12
f 27/36/13 39/59/13 26/35/13
f 5/6/14 28/38/14 31/42/14
f 21/28/15 37/55/15 36/53/15
f 15/19/16 33/47/16 32/44/16
f 5/6/17 3/4/17 4/5/17
f 21/28/18 35/51/18 20/27/18
f 13/17/19 19/26/19 12/16/19
f 30/40/20 9/12/20 42/65/20
f 15/19/21 11/15/21 14/18/21
f 30/40/22 41/63/22 29/39/22
f 10/13/23 25/34/23 8/10/23
f 43/66/24 56/93/24 48/76/24
f 8/10/25 47/75/25 48/77/25
f 24/32/26 58/98/26 59/99/26
f 18/24/27 56/94/27 20/27/27
f 2/2/28 45/71/28 4/5/28
f 2/2/29 43/67/29 44/69/29
f 18/24/30 54/89/30 55/92/30
f 13/17/31 52/85/31 14/18/31
f 27/36/32 62/106/32 29/39/32
f 10/13/33 50/81/33 12/16/33
f 27/36/34 60/102/34 61/104/34
f 5/6/35 47/75/35 7/9/35
f 21/28/36 58/98/36 23/31/36
f 15/19/37 54/90/37 17/22/37
f 5/6/38 45/71/38 46/73/38
f 21/28/39 56/94/39 57/96/39
f 13/17/40 50/81/40 51/83/40
f 30/40/41 43/67/41 1/1/41
f 15/19/42 52/85/42 53/87/42
f 30/40/43 62/106/43 63/108/43
f 10/13/44 48/77/44 49/79/44
f 24/32/1 59/99/1 60/102/1
f 9/11/2 6/7/2 3/3/2
f 3/3/2 31/41/2 28/37/2
f 28/37/2 25/33/2 22/29/2
f 22/29/2 19/25/2 16/20/2
f 16/20/2 11/14/2 32/43/2
f 32/43/2 33/45/2 34/48/2
f 34/48/2 35/50/2 36/52/2
f 36/52/2 37/54/2 38/56/2
f 38/56/2 39/58/2 40/60/2
f 40/60/2 41/62/2 42/64/2
f 42/64/2 9/11/2 3/3/2
f 3/3/2 28/37/2 22/29/2
f 22/29/2 16/20/2 32/43/2
f 32/43/2 34/48/2 36/52/2
f 36/52/2 38/56/2 40/60/2
f 40/60/2 42/64/2 3/3/2
f 3/3/2 22/29/2 32/43/2
f 32/43/2 36/52/2 40/60/2
f 24/32/3 26/35/3 39/59/3
f 8/10/4 25/34/4 28/38/4
f 24/32/5 38/57/5 37/55/5
f 18/24/6 20/27/6 35/51/6
f 2/2/7 4/5/7 3/4/7
f 2/2/8 6/8/8 9/12/8
f 18/24/9 34/49/9 33/46/9
f 13/17/10 14/18/10 11/15/10
f 27/36/11 29/39/11 41/63/11
f 10/13/12 12/16/12 19/26/12
f 27/36/13 40/61/13 39/59/13
f 5/6/14 7/9/14 28/38/14
f 21/28/15 23/31/15 37/55/15
f 15/19/16 17/22/16 33/47/16
f 5/6/17 31/42/17 3/4/17
f 21/28/18 36/53/18 35/51/18
f 13/17/19 16/21/19 19/26/19
f 30/40/20 1/1/20 9/12/20
f 15/19/21 32/44/21 11/15/21
f 30/40/22 42/65/22 41/63/22
f 10/13/23 22/30/23 25/34/23
f 45/70/24 44/68/24 43/66/24
f 43/66/24 63/107/24 62/105/24
f 62/105/24 61/103/24 60/101/24
f 60/101/24 59/100/24 58/97/24
f 58/97/24 57/95/24 56/93/24
f 56/93/24 55/91/24 54/88/24
f 54/88/24 53/86/24 52/84/24
f 52/84/24 51/82/24 50/80/24
f 50/80/24 49/78/24 48/76/24
f 48/76/24 47/74/24 46/72/24
f 46/72/24 45/70/24 43/66/24
f 43/66/24 62/105/24 60/101/24
f 60/101/24 58/97/24 56/93/24
f 56/93/24 54/88/24 52/84/24
f 52/84/24 50/80/24 48/76/24
f 48/76/24 46/72/24 43/66/24
f 43/66/24 60/101/24 56/93/24
f 56/93/24 52/84/24 48/76/24
f 8/10/25 7/9/25 47/75/25
f 24/32/26 23/31/26 58/98/26
f 18/24/27 55/92/27 56/94/27
f 2/2/28 44/69/28 45/71/28
f 2/2/29 1/1/29 43/67/29
f 18/24/30 17/23/30 54/89/30
f 13/17/31 51/83/31 52/85/31
f 27/36/32 61/104/32 62/106/32
f 10/13/33 49/79/33 50/81/33
f 27/36/34 26/35/34 60/102/34
f 5/6/35 46/73/35 47/75/35
f 21/28/36 57/96/36 58/98/36
f 15/19/37 53/87/37 54/90/37
f 5/6/38 4/5/38 45/71/38
f 21/28/39 20/27/39 56/94/39
f 13/17/40 12/16/40 50/81/40
f 30/40/41 63/108/41 43/67/41
f 15/19/42 14/18/42 52/85/42
f 30/40/43 29/39/43 62/106/43
f 10/13/44 8/10/44 48/77/44
