{
    "asset" : {
        "generator" : "Khronos glTF Blender I/O v3.2.43",
        "version" : "2.0"
    },
    "scene" : 0,
    "scenes" : [
        {
            "name" : "Scene",
            "nodes" : [
                4
            ]
        }
    ],
    "nodes" : [
        {
            "name" : "Bone.001",
            "rotation" : [
                -1.7519002915022952e-10,
                -1.6292077020807483e-07,
                0.0002899225801229477,
                1
            ],
            "translation" : [
                6.940851005055038e-09,
                4.187078475952148,
                -0.02797747030854225
            ]
        },
        {
            "children" : [
                0
            ],
            "name" : "Bone",
            "rotation" : [
                -0.7071069478988647,
                2.994712895900904e-21,
                0.7071065902709961,
                5.024293240702077e-15
            ],
            "translation" : [
                -1.3597292536360328e-07,
                4.1803297996521,
                -8.470329472543003e-21
            ]
        },
        {
            "mesh" : 0,
            "name" : "Cylinder.001",
            "skin" : 0
        },
        {
            "children" : [
                2,
                1
            ],
            "name" : "Armature.001",
            "rotation" : [
                0,
                0.7071068286895752,
                0,
                0.7071067094802856
            ]
        },
        {
            "children" : [
                3
            ],
            "name" : "Z_UP.001",
            "rotation" : [
                -0.7071068286895752,
                0,
                0,
                0.7071067094802856
            ]
        }
    ],
    "animations" : [
        {
            "channels" : [
                {
                    "sampler" : 0,
                    "target" : {
                        "node" : 1,
                        "path" : "translation"
                    }
                },
                {
                    "sampler" : 1,
                    "target" : {
                        "node" : 1,
                        "path" : "rotation"
                    }
                },
                {
                    "sampler" : 2,
                    "target" : {
                        "node" : 1,
                        "path" : "scale"
                    }
                },
                {
                    "sampler" : 3,
                    "target" : {
                        "node" : 0,
                        "path" : "translation"
                    }
                },
                {
                    "sampler" : 4,
                    "target" : {
                        "node" : 0,
                        "path" : "rotation"
                    }
                },
                {
                    "sampler" : 5,
                    "target" : {
                        "node" : 0,
                        "path" : "scale"
                    }
                }
            ],
            "name" : "Anim_0",
            "samplers" : [
                {
                    "input" : 6,
                    "interpolation" : "LINEAR",
                    "output" : 7
                },
                {
                    "input" : 6,
                    "interpolation" : "LINEAR",
                    "output" : 8
                },
                {
                    "input" : 6,
                    "interpolation" : "LINEAR",
                    "output" : 9
                },
                {
                    "input" : 6,
                    "interpolation" : "LINEAR",
                    "output" : 10
                },
                {
                    "input" : 6,
                    "interpolation" : "LINEAR",
                    "output" : 11
                },
                {
                    "input" : 6,
                    "interpolation" : "LINEAR",
                    "output" : 12
                }
            ]
        },
        {
            "channels" : [
                {
                    "sampler" : 0,
                    "target" : {
                        "node" : 1,
                        "path" : "translation"
                    }
                },
                {
                    "sampler" : 1,
                    "target" : {
                        "node" : 1,
                        "path" : "rotation"
                    }
                },
                {
                    "sampler" : 2,
                    "target" : {
                        "node" : 1,
                        "path" : "scale"
                    }
                },
                {
                    "sampler" : 3,
                    "target" : {
                        "node" : 0,
                        "path" : "translation"
                    }
                },
                {
                    "sampler" : 4,
                    "target" : {
                        "node" : 0,
                        "path" : "rotation"
                    }
                },
                {
                    "sampler" : 5,
                    "target" : {
                        "node" : 0,
                        "path" : "scale"
                    }
                }
            ],
            "name" : "ArmatureAction",
            "samplers" : [
                {
                    "input" : 13,
                    "interpolation" : "LINEAR",
                    "output" : 14
                },
                {
                    "input" : 13,
                    "interpolation" : "LINEAR",
                    "output" : 15
                },
                {
                    "input" : 13,
                    "interpolation" : "LINEAR",
                    "output" : 16
                },
                {
                    "input" : 13,
                    "interpolation" : "LINEAR",
                    "output" : 17
                },
                {
                    "input" : 13,
                    "interpolation" : "LINEAR",
                    "output" : 18
                },
                {
                    "input" : 13,
                    "interpolation" : "LINEAR",
                    "output" : 19
                }
            ]
        }
    ],
    "materials" : [
        {
            "name" : "Material_001-effect.001",
            "pbrMetallicRoughness" : {
                "baseColorFactor" : [
                    0.27963539958000183,
                    0.6399999856948853,
                    0.21094390749931335,
                    1
                ],
                "metallicFactor" : 0
            }
        }
    ],
    "meshes" : [
        {
            "name" : "Cylinder.001",
            "primitives" : [
                {
                    "attributes" : {
                        "POSITION" : 0,
                        "NORMAL" : 1,
                        "JOINTS_0" : 2,
                        "WEIGHTS_0" : 3
                    },
                    "indices" : 4,
                    "material" : 0
                }
            ]
        }
    ],
    "skins" : [
        {
            "inverseBindMatrices" : 5,
            "joints" : [
                1,
                0
            ],
            "name" : "Armature.001"
        }
    ],
    "accessors" : [
        {
            "bufferView" : 0,
            "componentType" : 5126,
            "count" : 254,
            "max" : [
                1.0000001192092896,
                0.9999994039535522,
                4.575077533721924
            ],
            "min" : [
                -0.9999996423721313,
                -1.0000005960464478,
                -4.575077056884766
            ],
            "type" : "VEC3"
        },
        {
            "bufferView" : 1,
            "componentType" : 5126,
            "count" : 254,
            "type" : "VEC3"
        },
        {
            "bufferView" : 2,
            "componentType" : 5121,
            "count" : 254,
            "type" : "VEC4"
        },
        {
            "bufferView" : 3,
            "componentType" : 5126,
            "count" : 254,
            "type" : "VEC4"
        },
        {
            "bufferView" : 4,
            "componentType" : 5123,
            "count" : 564,
            "type" : "SCALAR"
        },
        {
            "bufferView" : 5,
            "componentType" : 5126,
            "count" : 2,
            "type" : "MAT4"
        },
        {
            "bufferView" : 6,
            "componentType" : 5126,
            "count" : 48,
            "max" : [
                1.9999999528129895
            ],
            "min" : [
                0.04166661947965622
            ],
            "type" : "SCALAR"
        },
        {
            "bufferView" : 7,
            "componentType" : 5126,
            "count" : 48,
            "type" : "VEC3"
        },
        {
            "bufferView" : 8,
            "componentType" : 5126,
            "count" : 48,
            "type" : "VEC4"
        },
        {
            "bufferView" : 9,
            "componentType" : 5126,
            "count" : 48,
            "type" : "VEC3"
        },
        {
            "bufferView" : 10,
            "componentType" : 5126,
            "count" : 48,
            "type" : "VEC3"
        },
        {
            "bufferView" : 11,
            "componentType" : 5126,
            "count" : 48,
            "type" : "VEC4"
        },
        {
            "bufferView" : 12,
            "componentType" : 5126,
            "count" : 48,
            "type" : "VEC3"
        },
        {
            "bufferView" : 13,
            "componentType" : 5126,
            "count" : 250,
            "max" : [
                10.416666619479656
            ],
            "min" : [
                0.04166661947965622
            ],
            "type" : "SCALAR"
        },
        {
            "bufferView" : 14,
            "componentType" : 5126,
            "count" : 250,
            "type" : "VEC3"
        },
        {
            "bufferView" : 15,
            "componentType" : 5126,
            "count" : 250,
            "type" : "VEC4"
        },
        {
            "bufferView" : 16,
            "componentType" : 5126,
            "count" : 250,
            "type" : "VEC3"
        },
        {
            "bufferView" : 17,
            "componentType" : 5126,
            "count" : 250,
            "type" : "VEC3"
        },
        {
            "bufferView" : 18,
            "componentType" : 5126,
            "count" : 250,
            "type" : "VEC4"
        },
        {
            "bufferView" : 19,
            "componentType" : 5126,
            "count" : 250,
            "type" : "VEC3"
        }
    ],
    "bufferViews" : [
        {
            "buffer" : 0,
            "byteLength" : 3048,
            "byteOffset" : 0
        },
        {
            "buffer" : 0,
            "byteLength" : 3048,
            "byteOffset" : 3048
        },
        {
            "buffer" : 0,
            "byteLength" : 1016,
            "byteOffset" : 6096
        },
        {
            "buffer" : 0,
            "byteLength" : 4064,
            "byteOffset" : 7112
        },
        {
            "buffer" : 0,
            "byteLength" : 1128,
            "byteOffset" : 11176
        },
        {
            "buffer" : 0,
            "byteLength" : 128,
            "byteOffset" : 12304
        },
        {
            "buffer" : 0,
            "byteLength" : 192,
            "byteOffset" : 12432
        },
        {
            "buffer" : 0,
            "byteLength" : 576,
            "byteOffset" : 12624
        },
        {
            "buffer" : 0,
            "byteLength" : 768,
            "byteOffset" : 13200
        },
        {
            "buffer" : 0,
            "byteLength" : 576,
            "byteOffset" : 13968
        },
        {
            "buffer" : 0,
            "byteLength" : 576,
            "byteOffset" : 14544
        },
        {
            "buffer" : 0,
            "byteLength" : 768,
            "byteOffset" : 15120
        },
        {
            "buffer" : 0,
            "byteLength" : 576,
            "byteOffset" : 15888
        },
        {
            "buffer" : 0,
            "byteLength" : 1000,
            "byteOffset" : 16464
        },
        {
            "buffer" : 0,
            "byteLength" : 3000,
            "byteOffset" : 17464
        },
        {
            "buffer" : 0,
            "byteLength" : 4000,
            "byteOffset" : 20464
        },
        {
            "buffer" : 0,
            "byteLength" : 3000,
            "byteOffset" : 24464
        },
        {
            "buffer" : 0,
            "byteLength" : 3000,
            "byteOffset" : 27464
        },
        {
            "buffer" : 0,
            "byteLength" : 4000,
            "byteOffset" : 30464
        },
        {
            "buffer" : 0,
            "byteLength" : 3000,
            "byteOffset" : 34464
        }
    ],
    "buffers" : [
        {
            "byteLength" : 37464,
            "uri" : "data:application/octet-stream;base64,"
        }
    ]
}
